<svg viewBox="0 0 1400 620" xmlns="http://www.w3.org/2000/svg" role="img" aria-label="Codeglance scans once, builds an evidence map, and writes local adapter files for AI coding tools">
  <defs>
    <linearGradient id="bg" x1="0" y1="0" x2="1" y2="1">
      <stop offset="0%" stop-color="#071017"/>
      <stop offset="56%" stop-color="#09141C"/>
      <stop offset="100%" stop-color="#0E1B24"/>
    </linearGradient>
    <linearGradient id="scan" x1="0" y1="0" x2="1" y2="0">
      <stop offset="0%" stop-color="#22D3EE" stop-opacity="0"/>
      <stop offset="45%" stop-color="#22D3EE" stop-opacity=".34"/>
      <stop offset="100%" stop-color="#2DD4BF" stop-opacity="0"/>
    </linearGradient>
    <linearGradient id="cyan" x1="0" y1="0" x2="1" y2="1">
      <stop offset="0%" stop-color="#8CF4FF"/>
      <stop offset="52%" stop-color="#22D3EE"/>
      <stop offset="100%" stop-color="#14B8A6"/>
    </linearGradient>
    <radialGradient id="core" cx="50%" cy="50%" r="50%">
      <stop offset="0%" stop-color="#22D3EE" stop-opacity=".28"/>
      <stop offset="55%" stop-color="#22D3EE" stop-opacity=".08"/>
      <stop offset="100%" stop-color="#22D3EE" stop-opacity="0"/>
    </radialGradient>
    <filter id="glow" x="-40%" y="-40%" width="180%" height="180%">
      <feGaussianBlur stdDeviation="5" result="b"/>
      <feMerge><feMergeNode in="b"/><feMergeNode in="SourceGraphic"/></feMerge>
    </filter>
  </defs>
  <rect width="1400" height="620" rx="34" fill="url(#bg)"/>
  <rect x="2" y="2" width="1396" height="616" rx="32" fill="none" stroke="#173242" stroke-width="2"/>
  <path d="M124 306 L1268 94 L1268 522 Z" fill="url(#scan)"/>
  <path d="M90 506 C232 438 394 508 560 448 S940 394 1282 478" fill="none" stroke="#123040" stroke-width="2" opacity=".58"/>
  <path d="M150 104 C360 40 544 86 710 116 S1040 136 1260 66" fill="none" stroke="#123040" stroke-width="2" opacity=".46"/>
  <g opacity=".18" stroke="#1B3544" stroke-width="1">
    <path d="M160 156 H1250 M160 226 H1250 M160 296 H1250 M160 366 H1250 M160 436 H1250"/>
    <path d="M230 112 V508 M370 112 V508 M510 112 V508 M650 112 V508 M790 112 V508 M930 112 V508 M1070 112 V508 M1210 112 V508"/>
  </g>

  <g transform="translate(106 82)">
    <rect width="382" height="458" rx="28" fill="#0B1720" stroke="#244657" stroke-width="2"/>
    <rect x="22" y="22" width="338" height="48" rx="13" fill="#122635"/>
    <circle cx="50" cy="46" r="6" fill="#38BDF8"/>
    <circle cx="76" cy="46" r="6" fill="#22D3EE"/>
    <circle cx="102" cy="46" r="6" fill="#2DD4BF"/>
    <text x="32" y="120" font-family="Bahnschrift,'Segoe UI',Arial,sans-serif" font-size="24" font-weight="700" fill="#F3FBFF">One local scan</text>
    <g font-family="'JetBrains Mono',Consolas,monospace" font-size="16">
      <text x="32" y="172" fill="#7EA1B1">class PaymentFlow</text>
      <text x="32" y="222" fill="#7EA1B1">def authorize()</text>
      <text x="32" y="272" fill="#7EA1B1">def capture()</text>
      <text x="32" y="322" fill="#7EA1B1">emit Receipt</text>
      <text x="32" y="372" fill="#7EA1B1">notify User</text>
      <rect x="28" y="396" width="286" height="44" rx="10" fill="#0D1A24" stroke="#254757"/>
      <text x="48" y="425" fill="#D7E8EF"><tspan fill="#2DD4BF">$</tspan> codeglance generate</text>
    </g>
  </g>

  <g transform="translate(514 54)">
    <circle cx="250" cy="262" r="230" fill="url(#core)"/>
    <circle cx="250" cy="262" r="222" fill="#07131B" stroke="#143040" stroke-width="2"/>
    <circle cx="250" cy="262" r="168" fill="none" stroke="#1E4A58" stroke-width="2"/>
    <circle cx="250" cy="262" r="108" fill="none" stroke="#1E4A58" stroke-width="2"/>
    <path d="M250 40 V484 M28 262 H472" stroke="#123040" stroke-width="1.5"/>
    <path d="M250 262 L416 126" stroke="#22D3EE" stroke-width="3" opacity=".70"/>
    <path d="M250 262 L88 410" stroke="#2DD4BF" stroke-width="2.5" opacity=".50"/>
    <g stroke="#2DD4BF" stroke-width="3" stroke-linecap="round" opacity=".9">
      <path d="M154 188 L250 262 L336 184"/>
      <path d="M250 262 L154 338"/>
      <path d="M250 262 L356 350"/>
    </g>
    <circle cx="250" cy="262" r="60" fill="#0D1A24" stroke="url(#cyan)" stroke-width="7" filter="url(#glow)"/>
    <text x="250" y="254" text-anchor="middle" font-family="Bahnschrift,'Segoe UI',Arial,sans-serif" font-size="25" font-weight="700" fill="#F3FBFF">evidence</text>
    <text x="250" y="282" text-anchor="middle" font-family="'JetBrains Mono',Consolas,monospace" font-size="13" fill="#86ECE7">locked context</text>
    <g fill="#0D1A24" stroke="#38BDF8" stroke-width="2.5">
      <rect x="86" y="154" width="112" height="46" rx="10"/>
      <rect x="310" y="152" width="112" height="46" rx="10"/>
      <rect x="78" y="326" width="132" height="46" rx="10"/>
      <rect x="300" y="330" width="142" height="46" rx="10"/>
    </g>
    <g font-family="'JetBrains Mono',Consolas,monospace" font-size="15" fill="#D7E8EF">
      <text x="116" y="183">files</text>
      <text x="340" y="181">calls</text>
      <text x="110" y="355">flows</text>
      <text x="332" y="359">impact</text>
    </g>
    <g fill="#22D3EE" opacity=".86">
      <circle cx="52" cy="112" r="4"/>
      <circle cx="462" cy="210" r="3.5"/>
      <circle cx="416" cy="438" r="3.5"/>
      <circle cx="126" cy="462" r="3"/>
      <circle cx="474" cy="82" r="3"/>
    </g>
  </g>

  <g transform="translate(984 96)" font-family="Bahnschrift,'Segoe UI',Arial,sans-serif">
    <rect width="350" height="432" rx="26" fill="#0B1720" stroke="#244657" stroke-width="2"/>
    <text x="175" y="58" text-anchor="middle" font-size="29" font-weight="700" fill="#F3FBFF">Local adapters</text>
    <text x="175" y="88" text-anchor="middle" font-size="16" fill="#99B4C0">repo files, not hosted plugins</text>
    <g font-size="13" font-weight="700" fill="#D7E8EF">
      <g transform="translate(36 122)">
        <rect width="126" height="74" rx="14" fill="#0D1A24" stroke="#254757"/>
        <g transform="translate(16 10) scale(.95)" fill="#E6F6FB">
          <path d="M22.2819 9.8211a5.9847 5.9847 0 0 0-.5157-4.9108 6.0462 6.0462 0 0 0-6.5098-2.9A6.0651 6.0651 0 0 0 4.9807 4.1818a5.9847 5.9847 0 0 0-3.9977 2.9 6.0462 6.0462 0 0 0 .7427 7.0966 5.98 5.98 0 0 0 .511 4.9107 6.051 6.051 0 0 0 6.5146 2.9001A5.9847 5.9847 0 0 0 13.2599 24a6.0557 6.0557 0 0 0 5.7718-4.2058 5.9894 5.9894 0 0 0 3.9977-2.9001 6.0557 6.0557 0 0 0-.7475-7.0729zm-9.022 12.6081a4.4755 4.4755 0 0 1-2.8764-1.0408l.1419-.0804 4.7783-2.7582a.7948.7948 0 0 0 .3927-.6813v-6.7369l2.02 1.1686a.071.071 0 0 1 .038.052v5.5826a4.504 4.504 0 0 1-4.4945 4.4944zM8.3065 12.863l-2.02-1.1638a.0804.0804 0 0 1-.038-.0567V6.0742a4.4992 4.4992 0 0 1 7.3757-3.4537l-.142.0805L8.704 5.459a.7948.7948 0 0 0-.3927.6813zm1.0976-2.3654l2.602-1.4998 2.6069 1.4998v2.9994l-2.5974 1.4997-2.6067-1.4997Z"/>
        </g>
        <text x="52" y="31">Codex</text>
        <text x="16" y="58" fill="#86ECE7" font-size="11">AGENTS.md</text>
      </g>
      <g transform="translate(188 122)">
        <rect width="126" height="74" rx="14" fill="#0D1A24" stroke="#254757"/>
        <g transform="translate(16 10) scale(.95)" fill="#E6F6FB">
          <path d="M17.3041 3.541h-3.6718l6.696 16.918H24Zm-10.6082 0L0 20.459h3.7442l1.3693-3.5527h7.0052l1.3693 3.5528h3.7442L10.5363 3.5409Zm-.3712 10.2232 2.2914-5.9456 2.2914 5.9456Z"/>
        </g>
        <text x="52" y="31">Claude</text>
        <text x="16" y="58" fill="#86ECE7" font-size="11">.claude/</text>
      </g>
      <g transform="translate(36 214)">
        <rect width="126" height="74" rx="14" fill="#0D1A24" stroke="#254757"/>
        <g transform="translate(16 10) scale(.95)" fill="#E6F6FB">
          <path d="M11.503.131 1.891 5.678a.84.84 0 0 0-.42.726v11.188c0 .3.162.575.42.724l9.609 5.55a1 1 0 0 0 .998 0l9.61-5.55a.84.84 0 0 0 .42-.724V6.404a.84.84 0 0 0-.42-.726L12.497.131a1.01 1.01 0 0 0-.996 0M2.657 6.338h18.55c.263 0 .43.287.297.515L12.23 22.918c-.062.107-.229.064-.229-.06V12.335a.59.59 0 0 0-.295-.51l-9.11-5.257c-.109-.063-.064-.23.061-.23"/>
        </g>
        <text x="52" y="31">Cursor</text>
        <text x="16" y="58" fill="#86ECE7" font-size="11">rules</text>
      </g>
      <g transform="translate(188 214)">
        <rect width="126" height="74" rx="14" fill="#0D1A24" stroke="#254757"/>
        <g transform="translate(16 10) scale(.95)" fill="#E6F6FB">
          <path d="M23.15 2.587L18.21.21a1.494 1.494 0 0 0-1.705.29l-9.46 8.63-4.12-3.128a.999.999 0 0 0-1.276.057L.327 7.261A1 1 0 0 0 .326 8.74L3.899 12 .326 15.26a1 1 0 0 0 .001 1.479L1.65 17.94a.999.999 0 0 0 1.276.057l4.12-3.128 9.46 8.63a1.492 1.492 0 0 0 1.704.29l4.942-2.377A1.5 1.5 0 0 0 24 20.06V3.939a1.5 1.5 0 0 0-.85-1.352zm-5.146 14.861L10.826 12l7.178-5.448v10.896z"/>
        </g>
        <text x="52" y="31">VS Code</text>
        <text x="16" y="58" fill="#86ECE7" font-size="11">open links</text>
      </g>
      <g transform="translate(36 306)">
        <rect width="126" height="74" rx="14" fill="#0D1A24" stroke="#254757"/>
        <text x="18" y="30" font-size="19" fill="#E6F6FB">+</text>
        <text x="44" y="30">More</text>
        <text x="16" y="58" fill="#86ECE7" font-size="11">Copilot, Gemini...</text>
      </g>
      <g transform="translate(188 306)">
        <rect width="126" height="74" rx="14" fill="#0D1A24" stroke="#254757"/>
        <text x="18" y="30" font-size="19" fill="#E6F6FB">✓</text>
        <text x="44" y="30">Validate</text>
        <text x="16" y="58" fill="#86ECE7" font-size="11">dry-run first</text>
      </g>
    </g>
    <text x="175" y="414" text-anchor="middle" font-size="11" fill="#668492">No affiliation implied; adapters write local guidance.</text>
  </g>
  <text x="700" y="578" text-anchor="middle" font-family="Bahnschrift,'Segoe UI',Arial,sans-serif" font-size="30" fill="#99B4C0">scan once, then give every tool the same evidence map</text>
</svg>
