<svg viewBox="0 0 1280 640" xmlns="http://www.w3.org/2000/svg" role="img" aria-label="codeglance social card">
  <defs>
    <linearGradient id="bg" x1="0" y1="0" x2="1" y2="1">
      <stop offset="0%" stop-color="#071017"/>
      <stop offset="58%" stop-color="#09141C"/>
      <stop offset="100%" stop-color="#0E1B24"/>
    </linearGradient>
    <linearGradient id="rim" x1="0" y1="0" x2="1" y2="1">
      <stop offset="0%" stop-color="#8CF4FF"/>
      <stop offset="48%" stop-color="#22D3EE"/>
      <stop offset="100%" stop-color="#0EA5E9"/>
    </linearGradient>
    <linearGradient id="handle" x1="0" y1="0" x2="1" y2="1">
      <stop offset="0%" stop-color="#6EE7F9"/>
      <stop offset="55%" stop-color="#22D3EE"/>
      <stop offset="100%" stop-color="#14B8A6"/>
    </linearGradient>
    <linearGradient id="plate" x1="0" y1="0" x2="1" y2="0">
      <stop offset="0%" stop-color="#0A151D" stop-opacity=".38"/>
      <stop offset="48%" stop-color="#102633" stop-opacity=".62"/>
      <stop offset="100%" stop-color="#0A151D" stop-opacity=".30"/>
    </linearGradient>
    <radialGradient id="glass" cx="36%" cy="28%" r="76%">
      <stop offset="0%" stop-color="#E6F6FB" stop-opacity=".20"/>
      <stop offset="42%" stop-color="#38BDF8" stop-opacity=".055"/>
      <stop offset="100%" stop-color="#061018" stop-opacity=".05"/>
    </radialGradient>
    <clipPath id="lensClip"><circle cx="326" cy="302" r="128"/></clipPath>
    <filter id="shadow" x="-30%" y="-30%" width="160%" height="170%">
      <feDropShadow dx="0" dy="12" stdDeviation="10" flood-color="#02070A" flood-opacity=".42"/>
    </filter>
  </defs>
  <rect width="1280" height="640" fill="url(#bg)"/>
  <path d="M80 510 C220 440 340 520 500 464 S820 430 1120 512" fill="none" stroke="#123040" stroke-width="2" opacity=".48"/>
  <path d="M514 120 L1208 80 L1208 482 L514 430 Z" fill="#22D3EE" opacity=".035"/>
  <rect x="92" y="144" width="410" height="300" rx="30" fill="#0D1720" stroke="#234456" stroke-width="2.5"/>
  <rect x="102" y="154" width="390" height="48" rx="18" fill="#122635"/>
  <circle cx="134" cy="178" r="7.5" fill="#38BDF8"/>
  <circle cx="165" cy="178" r="7.5" fill="#22D3EE"/>
  <circle cx="196" cy="178" r="7.5" fill="#2DD4BF"/>
  <g font-family="Bahnschrift, 'Segoe UI', Arial, sans-serif" font-size="19" font-weight="500" fill="#668492">
    <text x="140" y="272">src/</text>
    <text x="184" y="314">render/</text>
    <text x="184" y="356">analyze/</text>
  </g>
  <g clip-path="url(#lensClip)">
    <rect x="186" y="154" width="324" height="330" fill="#0A151D"/>
    <g opacity=".33" stroke="#1F3D4A" stroke-width="1.4">
      <path d="M186 206 H510 M186 252 H510 M186 298 H510 M186 344 H510 M186 390 H510"/>
      <path d="M228 154 V484 M274 154 V484 M320 154 V484 M366 154 V484 M412 154 V484 M458 154 V484"/>
    </g>
    <path d="M232 260 H312 V224 H404 V272 H456" fill="none" stroke="#244758" stroke-width="10" stroke-linecap="round" stroke-linejoin="round"/>
    <path d="M314 266 V344 H410 V404 H466" fill="none" stroke="#2DD4BF" stroke-width="8" stroke-linecap="round" stroke-linejoin="round"/>
    <rect x="250" y="232" width="82" height="48" rx="10" fill="#38BDF8"/>
    <rect x="386" y="250" width="82" height="48" rx="10" fill="#162B38" stroke="#4B7180" stroke-width="3"/>
    <rect x="264" y="382" width="80" height="48" rx="10" fill="#155E75"/>
    <circle cx="274" cy="248" r="6" fill="#E6F6FB"/>
  </g>
  <path d="M428 404 L542 518" stroke="#02080C" stroke-width="46" stroke-linecap="round" opacity=".52" filter="url(#shadow)"/>
  <path d="M438 414 L542 518" stroke="url(#handle)" stroke-width="31" stroke-linecap="round"/>
  <path d="M454 430 L524 500" stroke="#B6FAFF" stroke-width="6" stroke-linecap="round" opacity=".30"/>
  <circle cx="326" cy="302" r="137" fill="none" stroke="#02080C" stroke-width="22" opacity=".62" filter="url(#shadow)"/>
  <circle cx="326" cy="302" r="128" fill="url(#glass)" stroke="#0C2A35" stroke-width="25"/>
  <circle cx="326" cy="302" r="128" fill="none" stroke="url(#rim)" stroke-width="17"/>
  <path d="M246 222 A112 112 0 0 1 310 192" fill="none" stroke="#E6F6FB" stroke-width="8" stroke-linecap="round" opacity=".44"/>
  <rect x="594" y="164" width="566" height="128" rx="24" fill="url(#plate)" stroke="#1F5562" stroke-width="1.5"/>
  <text x="878" y="252" text-anchor="middle" font-family="Bahnschrift, 'Aptos Display', 'Segoe UI', Arial, sans-serif" font-size="104" font-weight="700" letter-spacing="1.2">
    <tspan fill="#F3FBFF">code</tspan><tspan fill="#86ECE7">glance</tspan>
  </text>
  <text x="878" y="342" text-anchor="middle" font-family="Bahnschrift, 'Aptos Display', 'Segoe UI', Arial, sans-serif" font-size="34" fill="#99B4C0">turn a repo into a readable map</text>
  <g transform="translate(696,392)" font-family="'JetBrains Mono','Cascadia Code',Consolas,monospace" font-size="23">
    <rect width="364" height="50" rx="12" fill="#0D1A24" stroke="#254757" stroke-width="1.5"/>
    <text x="25" y="33"><tspan fill="#2DD4BF">$</tspan><tspan fill="#D7E8EF" dx="13">pip install codeglance</tspan></text>
  </g>
</svg>
