<svg xmlns="http://www.w3.org/2000/svg" viewBox="0 0 1120 420" role="img" aria-labelledby="title desc">
  <title id="title">CodeGlance Python lens</title>
  <desc id="desc">A Python-style code map inspected through a magnifying glass.</desc>
  <defs>
    <linearGradient id="bg" x1="0" y1="0" x2="1" y2="1">
      <stop offset="0" stop-color="#06111d"/>
      <stop offset="0.52" stop-color="#0b1723"/>
      <stop offset="1" stop-color="#102331"/>
    </linearGradient>
    <linearGradient id="card" x1="0" y1="0" x2="1" y2="1">
      <stop offset="0" stop-color="#1d3141"/>
      <stop offset="1" stop-color="#162331"/>
    </linearGradient>
    <linearGradient id="accent" x1="0" y1="0" x2="1" y2="1">
      <stop offset="0" stop-color="#67e8f9"/>
      <stop offset="1" stop-color="#38bdf8"/>
    </linearGradient>
    <linearGradient id="py" x1="0" y1="0" x2="1" y2="1">
      <stop offset="0" stop-color="#3674a7"/>
      <stop offset="1" stop-color="#ffd24a"/>
    </linearGradient>
    <filter id="glow" x="-40%" y="-40%" width="180%" height="180%">
      <feGaussianBlur stdDeviation="7" result="blur"/>
      <feMerge>
        <feMergeNode in="blur"/>
        <feMergeNode in="SourceGraphic"/>
      </feMerge>
    </filter>
  </defs>
  <rect width="1120" height="420" rx="26" fill="url(#bg)"/>
  <path d="M90 88h290M90 132h190M90 176h330M90 220h250M90 264h300" stroke="#314657" stroke-width="10" stroke-linecap="round" opacity=".55"/>
  <path d="M684 84h240M684 128h160M684 172h300M684 216h210M684 260h270" stroke="#314657" stroke-width="10" stroke-linecap="round" opacity=".45"/>
  <g opacity=".58" stroke="#2a6f97" stroke-width="3" stroke-dasharray="10 14" fill="none">
    <path d="M262 178C352 90 476 90 566 178"/>
    <path d="M274 244c116 84 250 84 370 0"/>
    <path d="M474 156c80 20 150 68 206 142"/>
    <path d="M398 280c-66-32-130-88-188-168"/>
  </g>
  <g filter="url(#glow)">
    <rect x="220" y="122" width="164" height="70" rx="13" fill="url(#card)" stroke="#5ba4cf" stroke-width="2"/>
    <rect x="456" y="82" width="180" height="74" rx="13" fill="url(#card)" stroke="#33d6b8" stroke-width="2"/>
    <rect x="584" y="214" width="170" height="74" rx="13" fill="url(#card)" stroke="#ffd24a" stroke-width="2"/>
    <rect x="326" y="252" width="184" height="76" rx="13" fill="url(#card)" stroke="#b983ff" stroke-width="2"/>
  </g>
  <g font-family="ui-monospace, SFMono-Regular, Consolas, monospace" font-size="16" font-weight="700">
    <text x="240" y="151" fill="#67e8f9">FILE</text>
    <text x="240" y="174" fill="#f8fafc">app.py</text>
    <text x="476" y="113" fill="#5eead4">CLASS</text>
    <text x="476" y="137" fill="#f8fafc">Analyzer</text>
    <text x="604" y="245" fill="#fde047">FLOW</text>
    <text x="604" y="269" fill="#f8fafc">review</text>
    <text x="346" y="283" fill="#c084fc">AGENT</text>
    <text x="346" y="307" fill="#f8fafc">llms.txt</text>
  </g>
  <g transform="translate(704 66)">
    <circle cx="145" cy="145" r="102" fill="#0b1621" stroke="url(#accent)" stroke-width="13" opacity=".96"/>
    <circle cx="145" cy="145" r="78" fill="#102433" stroke="#dff7ff" stroke-width="2" opacity=".72"/>
    <path d="M218 218l88 88" stroke="#67e8f9" stroke-width="24" stroke-linecap="round"/>
    <path d="M120 110c0-26 20-42 48-42h28v54h-58c-10 0-18-5-18-12z" fill="#3674a7"/>
    <path d="M170 178c0 26-20 42-48 42H94v-54h58c10 0 18 5 18 12z" fill="#ffd24a"/>
    <circle cx="176" cy="90" r="6" fill="#dff7ff"/>
    <circle cx="118" cy="198" r="6" fill="#1e293b"/>
  </g>
  <g font-family="Inter, ui-sans-serif, system-ui, sans-serif">
    <text x="82" y="352" fill="#f8fafc" font-size="30" font-weight="800">Map first. Read less. Change with evidence.</text>
    <text x="82" y="384" fill="#94a3b8" font-size="18">Static HTML for humans, compact context for agents, pure Python from install to output.</text>
  </g>
</svg>
