<svg viewBox="0 0 900 220" xmlns="http://www.w3.org/2000/svg" role="img" aria-label="codeglance logo for light backgrounds">
  <defs>
    <linearGradient id="rim" x1="0" y1="0" x2="1" y2="1">
      <stop offset="0%" stop-color="#0891B2"/>
      <stop offset="54%" stop-color="#0EA5E9"/>
      <stop offset="100%" stop-color="#0D9488"/>
    </linearGradient>
    <linearGradient id="handle" x1="0" y1="0" x2="1" y2="1">
      <stop offset="0%" stop-color="#38BDF8"/>
      <stop offset="100%" stop-color="#14B8A6"/>
    </linearGradient>
  </defs>
  <g transform="translate(34 28)">
    <rect x="0" y="12" width="190" height="126" rx="18" fill="#EFF6F9" stroke="#B9CDD8" stroke-width="2"/>
    <rect x="6" y="18" width="178" height="24" rx="10" fill="#D8E8EF"/>
    <circle cx="25" cy="30" r="4.5" fill="#0EA5E9"/>
    <circle cx="43" cy="30" r="4.5" fill="#22D3EE"/>
    <circle cx="61" cy="30" r="4.5" fill="#0D9488"/>
    <path d="M132 118 L178 164" stroke="#102430" stroke-width="17" stroke-linecap="round" opacity=".20"/>
    <path d="M138 124 L178 164" stroke="url(#handle)" stroke-width="12" stroke-linecap="round"/>
    <circle cx="104" cy="92" r="54" fill="#F7FBFD" stroke="#D0E2EA" stroke-width="10"/>
    <circle cx="104" cy="92" r="54" fill="none" stroke="url(#rim)" stroke-width="8"/>
    <path d="M76 88 H106 V70 H146 V94 H164" fill="none" stroke="#0D9488" stroke-width="4.5" stroke-linecap="round" stroke-linejoin="round"/>
    <path d="M106 91 V126 H148" fill="none" stroke="#0EA5E9" stroke-width="4.5" stroke-linecap="round" stroke-linejoin="round"/>
    <rect x="72" y="70" width="40" height="24" rx="5" fill="#38BDF8"/>
    <rect x="134" y="84" width="38" height="24" rx="5" fill="#EFF6F9" stroke="#668492" stroke-width="2"/>
    <rect x="82" y="118" width="38" height="24" rx="5" fill="#155E75"/>
    <path d="M68 58 A48 48 0 0 1 96 45" fill="none" stroke="#FFFFFF" stroke-width="4" stroke-linecap="round" opacity=".8"/>
  </g>
  <text x="286" y="132" font-family="Bahnschrift, 'Aptos Display', 'Segoe UI', Arial, sans-serif" font-size="86" font-weight="700" letter-spacing="1" fill="#102430">
    <tspan>code</tspan><tspan fill="#0D9488">glance</tspan>
  </text>
</svg>
