<svg viewBox="0 0 1600 420" xmlns="http://www.w3.org/2000/svg" role="img" aria-label="codeglance wide banner">
  <defs>
    <linearGradient id="bg" x1="0" y1="0" x2="1" y2="1">
      <stop offset="0%" stop-color="#071017"/>
      <stop offset="56%" stop-color="#09141C"/>
      <stop offset="100%" stop-color="#0E1B24"/>
    </linearGradient>
    <linearGradient id="panel" x1="0" y1="0" x2="1" y2="1">
      <stop offset="0%" stop-color="#0D1720"/>
      <stop offset="100%" stop-color="#111F2A"/>
    </linearGradient>
    <linearGradient id="accent" x1="0" y1="0" x2="1" y2="1">
      <stop offset="0%" stop-color="#38BDF8"/>
      <stop offset="48%" stop-color="#22D3EE"/>
      <stop offset="100%" stop-color="#2DD4BF"/>
    </linearGradient>
    <linearGradient id="word" x1="0" y1="0" x2="1" y2="0">
      <stop offset="0%" stop-color="#F3FBFF"/>
      <stop offset="52%" stop-color="#DDF7FC"/>
      <stop offset="100%" stop-color="#8DEBE4"/>
    </linearGradient>
    <radialGradient id="lensGlass" cx="36%" cy="28%" r="76%">
      <stop offset="0%" stop-color="#E6F6FB" stop-opacity=".20"/>
      <stop offset="42%" stop-color="#38BDF8" stop-opacity=".055"/>
      <stop offset="100%" stop-color="#061018" stop-opacity=".05"/>
    </radialGradient>
    <linearGradient id="rimEdge" x1="0" y1="0" x2="1" y2="1">
      <stop offset="0%" stop-color="#8CF4FF"/>
      <stop offset="43%" stop-color="#22D3EE"/>
      <stop offset="100%" stop-color="#0EA5E9"/>
    </linearGradient>
    <linearGradient id="handleEdge" x1="0" y1="0" x2="1" y2="1">
      <stop offset="0%" stop-color="#6EE7F9"/>
      <stop offset="52%" stop-color="#22D3EE"/>
      <stop offset="100%" stop-color="#14B8A6"/>
    </linearGradient>
    <linearGradient id="namePlate" x1="0" y1="0" x2="1" y2="0">
      <stop offset="0%" stop-color="#0A151D" stop-opacity=".38"/>
      <stop offset="48%" stop-color="#102633" stop-opacity=".62"/>
      <stop offset="100%" stop-color="#0A151D" stop-opacity=".30"/>
    </linearGradient>
    <filter id="softShadow" x="-30%" y="-30%" width="160%" height="170%">
      <feDropShadow dx="0" dy="12" stdDeviation="10" flood-color="#02070A" flood-opacity=".42"/>
    </filter>
    <filter id="rimGlow" x="-35%" y="-35%" width="170%" height="170%">
      <feGaussianBlur stdDeviation="3.5" result="blur"/>
      <feMerge>
        <feMergeNode in="blur"/>
        <feMergeNode in="SourceGraphic"/>
      </feMerge>
    </filter>
    <clipPath id="windowClip">
      <rect x="118" y="72" width="468" height="278" rx="26"/>
    </clipPath>
    <clipPath id="lensClip">
      <circle cx="400" cy="220" r="114"/>
    </clipPath>
  </defs>

  <rect width="1600" height="420" rx="32" fill="url(#bg)"/>
  <rect x="2" y="2" width="1596" height="416" rx="30" fill="none" stroke="#162B38" stroke-width="2"/>
  <path d="M690 89 C810 46 980 66 1110 96 S1390 122 1518 56" fill="none" stroke="#123040" stroke-width="2" opacity=".52"/>
  <path d="M642 330 C812 270 976 316 1136 286 S1392 278 1510 328" fill="none" stroke="#123040" stroke-width="2" opacity=".44"/>
  <path d="M640 122 L1496 78 L1496 344 L640 286 Z" fill="#22D3EE" opacity=".035"/>

  <g>
    <rect x="108" y="62" width="488" height="298" rx="30" fill="url(#panel)" stroke="#234456" stroke-width="2.5"/>
    <g clip-path="url(#windowClip)">
      <rect x="118" y="72" width="468" height="278" fill="#0B1720"/>
      <rect x="118" y="72" width="468" height="48" fill="#122635"/>
      <circle cx="150" cy="96" r="7.5" fill="#38BDF8"/>
      <circle cx="181" cy="96" r="7.5" fill="#22D3EE"/>
      <circle cx="212" cy="96" r="7.5" fill="#2DD4BF"/>
      <g font-family="Bahnschrift, 'Segoe UI', Arial, sans-serif" font-size="18" font-weight="500" fill="#668492">
        <text x="154" y="174">src/</text>
        <text x="196" y="214">render/</text>
        <text x="246" y="254">template.py</text>
        <text x="196" y="294">analyze/</text>
      </g>

      <g clip-path="url(#lensClip)">
        <rect x="266" y="86" width="304" height="290" fill="#0A151D"/>
        <g opacity=".33" stroke="#1F3D4A" stroke-width="1">
          <path d="M266 130 H570 M266 172 H570 M266 214 H570 M266 256 H570 M266 298 H570"/>
          <path d="M298 86 V376 M340 86 V376 M382 86 V376 M424 86 V376 M466 86 V376 M508 86 V376"/>
        </g>
        <path d="M308 173 H382 V142 H466 V184 H516" fill="none" stroke="#244758" stroke-width="9" stroke-linecap="round" stroke-linejoin="round"/>
        <path d="M383 178 V250 H470 V304 H528" fill="none" stroke="#2DD4BF" stroke-width="7" stroke-linecap="round" stroke-linejoin="round"/>
        <path d="M328 300 H384 V252" fill="none" stroke="#38BDF8" stroke-width="7" stroke-linecap="round"/>
        <rect x="324" y="150" width="78" height="44" rx="9" fill="#38BDF8"/>
        <rect x="448" y="164" width="78" height="46" rx="9" fill="#162B38" stroke="#4B7180" stroke-width="2.5"/>
        <rect x="336" y="278" width="74" height="44" rx="9" fill="#155E75"/>
        <rect x="470" y="288" width="78" height="44" rx="9" fill="#0F2A35" stroke="#2DD4BF" stroke-width="2.5"/>
        <circle cx="351" cy="166" r="6" fill="#E6F6FB"/>
      </g>
    </g>
    <path d="M488 308 L584 404" stroke="#02080C" stroke-width="42" stroke-linecap="round" opacity=".52" filter="url(#softShadow)"/>
    <path d="M496 316 L584 404" stroke="url(#handleEdge)" stroke-width="28" stroke-linecap="round"/>
    <path d="M510 330 L570 390" stroke="#B6FAFF" stroke-width="5" stroke-linecap="round" opacity=".30"/>
    <circle cx="400" cy="220" r="121" fill="none" stroke="#02080C" stroke-width="20" opacity=".62" filter="url(#softShadow)"/>
    <circle cx="400" cy="220" r="114" fill="url(#lensGlass)" stroke="#0C2A35" stroke-width="23"/>
    <circle cx="400" cy="220" r="114" fill="none" stroke="url(#rimEdge)" stroke-width="15" filter="url(#rimGlow)"/>
    <circle cx="400" cy="220" r="100" fill="none" stroke="#B9F7FF" stroke-width="1.5" opacity=".20"/>
    <path d="M330 150 A99 99 0 0 1 386 124" fill="none" stroke="#E6F6FB" stroke-width="7" stroke-linecap="round" opacity=".44"/>
    <path d="M348 135 A106 106 0 0 1 438 122" fill="none" stroke="#B8F7FF" stroke-width="3" stroke-linecap="round" opacity=".22"/>
  </g>

  <g>
    <rect x="752" y="98" width="672" height="120" rx="22" fill="url(#namePlate)" stroke="#1F5562" stroke-width="1.5" opacity=".95"/>
    <path d="M790 218 H1386" stroke="#22D3EE" stroke-width="1.5" opacity=".20"/>
    <path d="M784 102 H1040" stroke="#22D3EE" stroke-width="2.5" stroke-linecap="round" opacity=".45"/>
    <path d="M1130 214 H1390" stroke="#2DD4BF" stroke-width="2.5" stroke-linecap="round" opacity=".38"/>
    <text x="1088" y="184" text-anchor="middle" font-family="Bahnschrift, 'Aptos Display', 'Segoe UI', Arial, sans-serif" font-size="112" font-weight="700" font-stretch="semi-condensed" letter-spacing="1.25" fill="url(#word)">
      <tspan fill="#F3FBFF">code</tspan><tspan fill="#86ECE7">glance</tspan>
    </text>
    <text x="1088" y="272" text-anchor="middle" font-family="Bahnschrift, 'Aptos Display', 'Segoe UI', Arial, sans-serif" font-size="31" font-weight="400" letter-spacing=".35" fill="#99B4C0">turn a repo into a readable map</text>
    <g transform="translate(883,318)" font-family="'JetBrains Mono','Cascadia Code',Consolas,monospace" font-size="23">
      <rect width="410" height="50" rx="12" fill="#0D1A24" stroke="#254757" stroke-width="1.5"/>
      <text x="25" y="33"><tspan fill="#2DD4BF">$</tspan><tspan fill="#D7E8EF" dx="13">pip install codeglance</tspan></text>
    </g>
  </g>
</svg>
